<svg xmlns="http://www.w3.org/2000/svg" viewBox="0 0 1200 630" role="img" aria-label="Driveout Workspace">
  <defs>
    <linearGradient id="driveout-share-bg" x1="0" y1="0" x2="1200" y2="630" gradientUnits="userSpaceOnUse">
      <stop offset="0" stop-color="#f8fafc" />
      <stop offset="0.48" stop-color="#ede9fe" />
      <stop offset="1" stop-color="#dbeafe" />
    </linearGradient>
    <linearGradient id="driveout-share-mark" x1="438" y1="154" x2="742" y2="470" gradientUnits="userSpaceOnUse">
      <stop offset="0" stop-color="#111827" />
      <stop offset="0.52" stop-color="#4c1d95" />
      <stop offset="1" stop-color="#7c3aed" />
    </linearGradient>
    <filter id="driveout-share-shadow" x="300" y="90" width="600" height="420" color-interpolation-filters="sRGB">
      <feDropShadow dx="0" dy="24" stdDeviation="28" flood-color="#4c1d95" flood-opacity="0.22" />
    </filter>
  </defs>
  <rect width="1200" height="630" fill="url(#driveout-share-bg)" />
  <circle cx="176" cy="116" r="150" fill="#ffffff" opacity="0.7" />
  <circle cx="1044" cy="514" r="196" fill="#ffffff" opacity="0.62" />
  <rect x="376" y="112" width="448" height="314" rx="54" fill="#ffffff" opacity="0.92" filter="url(#driveout-share-shadow)" />
  <rect x="452" y="152" width="152" height="152" rx="42" fill="url(#driveout-share-mark)" />
  <path
    d="M495 187h39.7c29.1 0 49.3 18.4 49.3 45.3s-20.2 45.3-49.3 45.3H495V187Zm38.8 67.6c14.4 0 23.9-8.8 23.9-22.3s-9.5-22.3-23.9-22.3h-13.3v44.6h13.3Z"
    fill="#ffffff"
  />
  <path d="M480 187h19.5v90.6H480V187Z" fill="#c4b5fd" />
  <text x="634" y="220" font-family="Inter, Arial, sans-serif" font-size="46" font-weight="800" fill="#111827">Driveout</text>
  <text x="634" y="270" font-family="Inter, Arial, sans-serif" font-size="24" font-weight="700" letter-spacing="4" fill="#6d28d9">WORKSPACE</text>
  <text x="600" y="370" text-anchor="middle" font-family="Inter, Arial, sans-serif" font-size="34" font-weight="700" fill="#334155">
    Rentals, listings, messages, and trips in one place.
  </text>
</svg>
